<svg width="10" height="16" viewBox="0 0 10 16" fill="none" xmlns="http://www.w3.org/2000/svg">
<path d="M8.93443 14.463C9.01015 14.5381 9.05273 14.6403 9.05273 14.747C9.05273 14.8536 9.01015 14.9558 8.93443 15.0309L8.08656 15.8788C8.01399 15.9561 7.91266 16 7.8066 16C7.70055 16 7.59922 15.9561 7.52665 15.8788L0.175764 8.52792C0.0632269 8.41552 -6.91116e-05 8.26304 -0.000209118 8.10398L-0.0002091 7.89602C-6.90656e-05 7.73696 0.063227 7.58448 0.175764 7.47208L7.52665 0.121197C7.59922 0.0438666 7.70055 -1.18212e-07 7.80661 -1.0894e-07C7.91266 -9.96687e-08 8.01399 0.0438666 8.08656 0.121197L8.93443 0.969068C9.01015 1.04416 9.05274 1.14639 9.05274 1.25303C9.05274 1.35966 9.01015 1.46189 8.93443 1.53698L2.47141 8L8.93443 14.463Z" fill="black"/>
</svg>
