<svg width="21" height="17" viewBox="0 0 21 17" fill="none" xmlns="http://www.w3.org/2000/svg">
<path d="M1.05444 2.87494L19.7976 2.87494C20.1425 2.87494 20.4222 2.45491 20.422 1.93747C20.4218 1.41995 20.1417 1 19.7969 1L1.05371 1C0.708823 1 0.429118 1.42003 0.429319 1.93747C0.42952 2.45491 0.709603 2.87494 1.05444 2.87494Z" fill="black" stroke="white" stroke-width="0.2"/>
<path d="M19.7973 7.5625L1.0542 7.5625C0.709311 7.5625 0.429606 7.98253 0.429807 8.49997C0.430008 9.0174 0.710091 9.43743 1.05493 9.43743L19.7981 9.43743C20.143 9.43743 20.4227 9.01741 20.4225 8.49997C20.4223 7.98253 20.1422 7.5625 19.7973 7.5625Z" fill="black" stroke="white" stroke-width="0.2"/>
<path d="M19.797 14.125L7.30175 14.125C6.95687 14.125 6.67716 14.545 6.67735 15.0625C6.67754 15.58 6.95761 15.9999 7.30244 15.9999L19.7977 15.9999C20.1426 15.9999 20.4223 15.5799 20.4221 15.0625C20.4219 14.545 20.1419 14.125 19.797 14.125Z" fill="black" stroke="white" stroke-width="0.2"/>
</svg>
