<svg width="14" height="14" viewBox="0 0 14 14" fill="none" xmlns="http://www.w3.org/2000/svg">
<g clip-path="url(#clip0_552_0)">
<path d="M12.9701 2.3333C12.9701 3.38037 12.1213 4.2292 11.0743 4.2292C10.0272 4.2292 9.17847 3.38037 9.17847 2.3333C9.17847 1.28633 10.0272 0.4375 11.0743 0.4375C12.1213 0.4375 12.9701 1.28633 12.9701 2.3333Z" fill="black"/>
<path d="M11.0743 4.6667C9.7874 4.6667 8.74097 3.62016 8.74097 2.3333C8.74097 1.04654 9.7874 0 11.0743 0C12.3611 0 13.4076 1.04654 13.4076 2.3333C13.4076 3.62016 12.3611 4.6667 11.0743 4.6667ZM11.0743 0.875C10.2699 0.875 9.61597 1.52954 9.61597 2.3333C9.61597 3.13716 10.2699 3.7917 11.0743 3.7917C11.8787 3.7917 12.5326 3.13716 12.5326 2.3333C12.5326 1.52954 11.8787 0.875 11.0743 0.875Z" fill="black"/>
<path d="M12.9701 11.6667C12.9701 12.7136 12.1213 13.5625 11.0743 13.5625C10.0272 13.5625 9.17847 12.7136 9.17847 11.6667C9.17847 10.6196 10.0272 9.77075 11.0743 9.77075C12.1213 9.77075 12.9701 10.6196 12.9701 11.6667Z" fill="black"/>
<path d="M11.0743 14C9.7874 14 8.74097 12.9534 8.74097 11.6667C8.74097 10.3798 9.7874 9.33325 11.0743 9.33325C12.3611 9.33325 13.4076 10.3798 13.4076 11.6667C13.4076 12.9534 12.3611 14 11.0743 14ZM11.0743 10.2083C10.2699 10.2083 9.61597 10.8628 9.61597 11.6667C9.61597 12.4704 10.2699 13.125 11.0743 13.125C11.8787 13.125 12.5326 12.4704 12.5326 11.6667C12.5326 10.8628 11.8787 10.2083 11.0743 10.2083Z" fill="black"/>
<path d="M4.80342 7.00005C4.80342 8.04712 3.95459 8.89584 2.90752 8.89584C1.86055 8.89584 1.01172 8.04712 1.01172 7.00005C1.01172 5.95297 1.86055 5.10425 2.90752 5.10425C3.95459 5.10425 4.80342 5.95297 4.80342 7.00005Z" fill="black"/>
<path d="M2.90752 9.33334C1.62076 9.33334 0.574219 8.28691 0.574219 7.00005C0.574219 5.71318 1.62076 4.66675 2.90752 4.66675C4.19438 4.66675 5.24092 5.71318 5.24092 7.00005C5.24092 8.28691 4.19438 9.33334 2.90752 9.33334ZM2.90752 5.54175C2.10312 5.54175 1.44922 6.19618 1.44922 7.00005C1.44922 7.80391 2.10312 8.45834 2.90752 8.45834C3.71202 8.45834 4.36592 7.80391 4.36592 7.00005C4.36592 6.19618 3.71202 5.54175 2.90752 5.54175Z" fill="black"/>
<path d="M4.28484 6.72004C4.08179 6.72004 3.88462 6.6144 3.77727 6.42545C3.61802 6.14603 3.71607 5.7896 3.99549 5.62971L9.40817 2.54392C9.68758 2.38349 10.044 2.48154 10.2039 2.76203C10.3632 3.04145 10.2651 3.39788 9.9857 3.55778L4.57291 6.64356C4.48191 6.69547 4.38279 6.72004 4.28484 6.72004Z" fill="black"/>
<path d="M9.69697 11.5327C9.59892 11.5327 9.4998 11.5081 9.40879 11.4562L3.99602 8.37041C3.7166 8.21115 3.61866 7.85472 3.77791 7.57466C3.93653 7.29471 4.29349 7.19612 4.57355 7.35655L9.98632 10.4423C10.2657 10.6016 10.3637 10.958 10.2044 11.2381C10.0966 11.427 9.89938 11.5327 9.69697 11.5327Z" fill="black"/>
</g>
<defs>
<clipPath id="clip0_552_0">
<rect width="14" height="14" fill="white"/>
</clipPath>
</defs>
</svg>
